<svg preserveAspectRatio="none" width="100%" height="100%" overflow="visible" style="display: block;" viewBox="0 0 24 24" fill="none" xmlns="http://www.w3.org/2000/svg">
<g id="Frame">
<path id="Vector" d="M12 18.5C12.0016 19.0243 11.8379 19.5357 11.5322 19.9616C11.2264 20.3875 10.7942 20.7061 10.2969 20.8722C9.7997 21.0383 9.26273 21.0435 8.76239 20.8869C8.26206 20.7303 7.82383 20.42 7.51 20H7.5C7.11483 20.0046 6.73395 19.9189 6.38781 19.7499C6.04168 19.5809 5.73991 19.3332 5.50665 19.0267C5.2734 18.7202 5.11513 18.3633 5.04452 17.9846C4.9739 17.6059 4.99291 17.216 5.1 16.846C4.56918 16.682 4.09476 16.3729 3.73031 15.9536C3.36587 15.5343 3.1259 15.0214 3.0375 14.4729C2.9491 13.9244 3.01579 13.3621 3.23004 12.8495C3.44429 12.3369 3.79757 11.8944 4.25 11.572C3.98146 11.022 3.92689 10.3917 4.0969 9.80374C4.26691 9.21573 4.64937 8.71187 5.17 8.39C5.03601 8.04845 4.97957 7.68139 5.00476 7.31536C5.02995 6.94933 5.13613 6.59347 5.31564 6.27348C5.49515 5.9535 5.74351 5.67739 6.04276 5.46511C6.342 5.25283 6.68467 5.10968 7.046 5.046C7.1138 4.68026 7.26236 4.33426 7.48085 4.03322C7.69935 3.73218 7.98226 3.4837 8.30897 3.30587C8.63569 3.12805 8.99796 3.02537 9.36939 3.00533C9.74082 2.98528 10.112 3.04837 10.456 3.19C10.913 3.37913 11.3036 3.69956 11.5785 4.11075C11.8533 4.52194 12 5.00541 12 5.5M12 18.5V5.5M12 18.5C11.9984 19.0243 12.1621 19.5357 12.4678 19.9616C12.7736 20.3875 13.2058 20.7061 13.7031 20.8722C14.2003 21.0383 14.7373 21.0435 15.2376 20.8869C15.7379 20.7303 16.1762 20.42 16.49 20H16.5C16.8854 20.005 17.2667 19.9198 17.6132 19.7509C17.9597 19.5821 18.2619 19.3345 18.4955 19.0279C18.7291 18.7213 18.8876 18.3643 18.9584 17.9854C19.0291 17.6065 19.0102 17.2163 18.903 16.846C19.4336 16.6817 19.9077 16.3723 20.2719 15.9528C20.636 15.5333 20.8756 15.0204 20.9637 14.4719C21.0518 13.9235 20.9848 13.3613 20.7703 12.8489C20.5559 12.3365 20.2025 11.8942 19.75 11.572C20.0185 11.0218 20.0729 10.3915 19.9027 9.80352C19.7325 9.2155 19.3498 8.71171 18.829 8.39C18.963 8.04852 19.0195 7.68153 18.9943 7.31556C18.9692 6.9496 18.8631 6.59378 18.6837 6.27381C18.5043 5.95384 18.2561 5.67772 17.9569 5.46539C17.6578 5.25305 17.3152 5.10981 16.954 5.046C16.848 4.47218 16.5447 3.9535 16.0965 3.57983C15.6483 3.20616 15.0835 3.00103 14.5 3C13.837 3 13.2011 3.26339 12.7322 3.73223C12.2634 4.20107 12 4.83696 12 5.5M4 10.5C3.99999 10.0867 4.10242 9.6799 4.29815 9.31591C4.49388 8.95193 4.77678 8.64214 5.12156 8.41427C5.46633 8.1864 5.86222 8.04756 6.2738 8.01017C6.68538 7.97277 7.0998 8.038 7.48 8.2M7.2 16.751C6.52103 17.0483 5.75604 17.0837 5.05251 16.8504C4.34898 16.6171 3.75671 16.1316 3.3899 15.4875C3.02308 14.8435 2.90768 14.0864 3.06594 13.3623C3.22421 12.6382 3.64493 11.9983 4.247 11.566M20 10.5C20.0001 10.0866 19.8977 9.67963 19.7019 9.31553C19.5061 8.95143 19.2231 8.64156 18.8782 8.41366C18.5333 8.18577 18.1372 8.04696 17.7255 8.00968C17.3138 7.97239 16.8992 8.03778 16.519 8.2M16.799 16.751C17.4781 17.0491 18.2435 17.0851 18.9475 16.852C19.6516 16.619 20.2443 16.1334 20.6115 15.4891C20.9786 14.8447 21.094 14.0872 20.9355 13.3627C20.7769 12.6382 20.3557 11.9982 19.753 11.566" stroke="var(--stroke-0, #002042)" stroke-width="2" stroke-linecap="round" stroke-linejoin="round"/>
</g>
</svg>
