<svg preserveAspectRatio="none" width="100%" height="100%" overflow="visible" style="display: block;" viewBox="0 0 24 24" fill="none" xmlns="http://www.w3.org/2000/svg">
<g id="Frame">
<path id="Vector" d="M14.8744 8.97997L17.0092 6.84512M17.0092 6.84512L19.1689 4.93774M17.0092 6.84512L19.1689 8.99588M17.0092 6.84512L14.8744 4.93774M17.0896 13.371L18.2327 14.5149C18.4072 14.661 18.5475 14.8436 18.6438 15.0498C18.74 15.2561 18.7899 15.481 18.7899 15.7086C18.7899 15.9362 18.74 16.1611 18.6438 16.3673C18.5475 16.5736 18.1709 16.9924 17.9965 17.1385C14.8792 20.2596 11.2226 18.8445 8.09173 15.7131C4.96086 12.5818 3.5485 8.9235 6.68107 5.81171C7.30813 5.19246 8.39458 4.66989 9.2995 5.57545L10.4906 6.76738C11.6817 7.95932 10.8468 8.70271 9.998 9.57109C9.07323 10.4959 9.34157 11.2985 9.998 11.955L11.8693 13.8275C12.1852 14.1436 12.6136 14.3211 13.0603 14.3211C13.5071 14.3211 13.9355 14.1436 14.2514 13.8275C15.1138 13.0014 15.9466 12.2271 17.0896 13.371Z" stroke="var(--stroke-0, #002042)" stroke-width="2" stroke-linecap="round" stroke-linejoin="round"/>
</g>
</svg>
