<svg preserveAspectRatio="none" width="100%" height="100%" overflow="visible" style="display: block;" viewBox="0 0 80 80" fill="none" xmlns="http://www.w3.org/2000/svg">
<g id="PoorInsulationIcon">
<path id="Vector" d="M13.8888 55.303L40.5554 25L67.2221 55.303H63.8887V66.6667H17.2221V55.303H13.8888Z" stroke="var(--stroke-0, #002042)" stroke-width="3" stroke-linecap="round" stroke-linejoin="round"/>
<g id="Frame">
<path id="Vector_2" d="M38.1955 48.488C38.2042 48.157 38.2785 47.8311 38.4141 47.5291C38.5497 47.2271 38.7439 46.9549 38.9854 46.7285C39.2269 46.5021 39.511 46.3258 39.8211 46.21C40.1313 46.0941 40.4613 46.041 40.7921 46.0536C41.123 46.0663 41.448 46.1444 41.7484 46.2836C42.0488 46.4228 42.3186 46.6202 42.5421 46.8644C42.7657 47.1086 42.9385 47.3947 43.0507 47.7062C43.1629 48.0177 43.2121 48.3483 43.1955 48.679C43.1907 49.0039 43.121 49.3245 42.9906 49.6222C42.8602 49.9198 42.6717 50.1884 42.4362 50.4122C42.2006 50.636 41.9228 50.8105 41.6189 50.9255C41.315 51.0406 40.9912 51.0937 40.6665 51.082V52.5M40.6565 55.508H40.6665M49.6665 50.5C49.6665 51.6819 49.4337 52.8522 48.9814 53.9442C48.5291 55.0361 47.8662 56.0282 47.0305 56.864C46.1947 57.6997 45.2026 58.3626 44.1107 58.8149C43.0187 59.2672 41.8484 59.5 40.6665 59.5C39.4846 59.5 38.3143 59.2672 37.2224 58.8149C36.1304 58.3626 35.1383 57.6997 34.3025 56.864C33.4668 56.0282 32.8039 55.0361 32.3516 53.9442C31.8993 52.8522 31.6665 51.6819 31.6665 50.5C31.6665 48.1131 32.6147 45.8239 34.3025 44.136C35.9904 42.4482 38.2796 41.5 40.6665 41.5C43.0535 41.5 45.3426 42.4482 47.0305 44.136C48.7183 45.8239 49.6665 48.1131 49.6665 50.5Z" stroke="var(--stroke-0, #86A735)" stroke-width="2" stroke-linecap="round" stroke-linejoin="round"/>
</g>
</g>
</svg>
