<svg preserveAspectRatio="none" width="100%" height="100%" overflow="visible" style="display: block;" viewBox="0 0 58.4521 52" fill="none" xmlns="http://www.w3.org/2000/svg">
<g id="Group 1">
<path id="Vector" d="M32.53 1C33.5009 1 34.4322 1.38582 35.1189 2.07227L56.4245 23.3779C57.0913 24.0685 57.4602 24.9932 57.4519 25.9531C57.4435 26.9132 57.0585 27.8318 56.3796 28.5107C55.7007 29.1896 54.782 29.5747 53.822 29.583C53.2408 29.588 52.6731 29.4532 52.1618 29.1992V44.5859C52.1617 46.2628 51.495 47.8709 50.3093 49.0566C49.1235 50.2424 47.5155 50.9091 45.8386 50.9092H37.8532C36.8822 50.9091 35.951 50.5226 35.2644 49.8359C34.5778 49.1493 34.1921 48.2181 34.1921 47.2471V40.2627H30.8689V47.2471C30.8689 48.2182 30.4823 49.1492 29.7956 49.8359C29.1089 50.5226 28.1779 50.9092 27.2068 50.9092H19.2224C17.5453 50.9092 15.9365 50.2425 14.7507 49.0566C13.565 47.8709 12.8992 46.2628 12.8991 44.5859V29.1992C12.3877 29.4535 11.8195 29.5881 11.238 29.583C10.2779 29.5747 9.35928 29.1896 8.68039 28.5107C8.0015 27.8318 7.61646 26.9132 7.60812 25.9531C7.59981 24.9931 7.96947 24.0685 8.63644 23.3779L8.6423 23.3711L29.9411 2.07227C30.6278 1.38584 31.5591 1.00003 32.53 1Z" fill="var(--fill-0, #A4CB49)" stroke="var(--stroke-0, #002042)" stroke-width="2"/>
<path id="Vector_2" d="M25.9219 1.09122C26.8928 1.09122 27.8241 1.47703 28.5107 2.16348L49.8164 23.4691C50.4832 24.1597 50.8521 25.0845 50.8438 26.0443C50.8354 27.0044 50.4504 27.9231 49.7715 28.602C49.0926 29.2808 48.1739 29.6659 47.2139 29.6742C46.6326 29.6792 46.065 29.5444 45.5537 29.2904V44.6772C45.5536 46.354 44.8869 47.9621 43.7012 49.1479C42.5154 50.3336 40.9074 51.0003 39.2305 51.0004H31.2451C30.274 51.0004 29.3429 50.6138 28.6562 49.9272C27.9696 49.2405 27.584 48.3094 27.584 47.3383V47.3305L27.6367 40.3539H24.2607V47.3383C24.2607 48.3094 23.8742 49.2405 23.1875 49.9272C22.5008 50.6138 21.5698 51.0004 20.5986 51.0004H12.6143C10.9372 51.0004 9.32842 50.3337 8.14258 49.1479C6.95687 47.9621 6.29112 46.354 6.29102 44.6772V29.2904C5.77954 29.5447 5.21142 29.6793 4.62988 29.6742C3.66981 29.6659 2.75116 29.2809 2.07227 28.602C1.39338 27.9231 1.00834 27.0044 1 26.0443C0.991684 25.0843 1.36135 24.1597 2.02832 23.4691L2.03418 23.4623L23.333 2.16348C24.0196 1.47706 24.951 1.09124 25.9219 1.09122Z" fill="var(--fill-0, #DDF2A8)" stroke="var(--stroke-0, #002042)" stroke-width="2"/>
<rect id="Rectangle 1" x="18.6639" y="18.6639" width="5.34243" height="5.34243" rx="1" fill="var(--fill-0, #A4CB49)" stroke="var(--stroke-0, #002042)" stroke-width="2"/>
<rect id="Rectangle 2" x="27.7196" y="18.6639" width="5.34243" height="5.34243" rx="1" fill="var(--fill-0, #A4CB49)" stroke="var(--stroke-0, #002042)" stroke-width="2"/>
<rect id="Rectangle 3" x="18.6639" y="27.9643" width="5.34243" height="5.34243" rx="1" fill="var(--fill-0, #A4CB49)" stroke="var(--stroke-0, #002042)" stroke-width="2"/>
<rect id="Rectangle 4" x="27.7196" y="27.9643" width="5.34243" height="5.34243" rx="1" fill="var(--fill-0, #A4CB49)" stroke="var(--stroke-0, #002042)" stroke-width="2"/>
</g>
</svg>
