<svg preserveAspectRatio="none" width="100%" height="100%" overflow="visible" style="display: block;" viewBox="0 0 51.935 52" fill="none" xmlns="http://www.w3.org/2000/svg">
<g id="Group 1">
<path id="Vector" d="M25.9678 1C26.9398 1.00007 27.8721 1.3861 28.5596 2.07324L49.8994 23.4131L49.9053 23.4199C50.5732 24.1115 50.9429 25.0376 50.9346 25.999C50.9262 26.9603 50.541 27.8798 49.8613 28.5596C49.1815 29.2394 48.2612 29.6254 47.2998 29.6338C46.7168 29.6388 46.1474 29.5032 45.6348 29.248V44.667C45.6347 46.3465 44.9668 47.9569 43.7793 49.1445C42.5916 50.3323 40.9805 51 39.3008 51H31.3008C30.3284 51 29.3956 50.6134 28.708 49.9258C28.0205 49.2382 27.6338 48.3054 27.6338 47.333V47.3252L27.6875 40.333H24.3008V47.333C24.3008 48.3055 23.9142 49.2381 23.2266 49.9258C22.5389 50.6134 21.6062 51 20.6338 51H12.6338C10.9542 50.9999 9.34296 50.3322 8.15527 49.1445C6.96788 47.9569 6.30088 46.3464 6.30078 44.667V29.248C5.78794 29.5034 5.21806 29.6389 4.63477 29.6338C3.67343 29.6254 2.75403 29.2393 2.07422 28.5596C1.39443 27.8798 1.00841 26.9603 1 25.999C0.991646 25.0377 1.36146 24.1115 2.0293 23.4199L2.03516 23.4131L2.04102 23.4072L7.375 18.0742L23.375 2.07324C24.0626 1.38589 24.9955 1 25.9678 1Z" fill="var(--fill-0, #DDF2A8)" stroke="var(--stroke-0, #002042)" stroke-width="2"/>
<rect id="Rectangle 1" x="18.6937" y="18.6023" width="5.35641" height="5.35641" rx="1" fill="var(--fill-0, #B9E15C)" stroke="var(--stroke-0, #002042)" stroke-width="2"/>
<rect id="Rectangle 2" x="27.7667" y="18.6023" width="5.35641" height="5.35641" rx="1" fill="var(--fill-0, #B9E15C)" stroke="var(--stroke-0, #002042)" stroke-width="2"/>
<rect id="Rectangle 3" x="18.6937" y="27.9204" width="5.35641" height="5.35641" rx="1" fill="var(--fill-0, #B9E15C)" stroke="var(--stroke-0, #002042)" stroke-width="2"/>
<rect id="Rectangle 4" x="27.7667" y="27.9204" width="5.35641" height="5.35641" rx="1" fill="var(--fill-0, #B9E15C)" stroke="var(--stroke-0, #002042)" stroke-width="2"/>
</g>
</svg>
