<svg preserveAspectRatio="none" width="100%" height="100%" overflow="visible" style="display: block;" viewBox="0 0 80 80" fill="none" xmlns="http://www.w3.org/2000/svg">
<g id="PoorInsulationIcon">
<path id="Vector" d="M13.8888 55.303L40.5554 25L67.2221 55.303H63.8887V66.6667H17.2221V55.303H13.8888Z" stroke="var(--stroke-0, #002042)" stroke-width="3" stroke-linecap="round" stroke-linejoin="round"/>
<g id="Frame">
<path id="Vector_2" d="M35 44.5L47 56.5M50 50.5C50 51.6819 49.7672 52.8522 49.3149 53.9442C48.8626 55.0361 48.1997 56.0282 47.364 56.864C46.5282 57.6997 45.5361 58.3626 44.4442 58.8149C43.3522 59.2672 42.1819 59.5 41 59.5C39.8181 59.5 38.6478 59.2672 37.5558 58.8149C36.4639 58.3626 35.4718 57.6997 34.636 56.864C33.8003 56.0282 33.1374 55.0361 32.6851 53.9442C32.2328 52.8522 32 51.6819 32 50.5C32 48.1131 32.9482 45.8239 34.636 44.136C36.3239 42.4482 38.6131 41.5 41 41.5C43.3869 41.5 45.6761 42.4482 47.364 44.136C49.0518 45.8239 50 48.1131 50 50.5Z" stroke="var(--stroke-0, #86A735)" stroke-width="2" stroke-linecap="round"/>
</g>
</g>
</svg>
