<svg preserveAspectRatio="none" width="100%" height="100%" overflow="visible" style="display: block;" viewBox="0 0 80 80" fill="none" xmlns="http://www.w3.org/2000/svg">
<g id="LaterIcon">
<path id="Vector" d="M42.8 9.6H37.2C36.0954 9.6 35.2 10.4954 35.2 11.6V13.2C35.2 14.3046 36.0954 15.2 37.2 15.2H42.8C43.9046 15.2 44.8 14.3046 44.8 13.2V11.6C44.8 10.4954 43.9046 9.6 42.8 9.6Z" fill="var(--fill-0, white)" stroke="var(--stroke-0, #002042)" stroke-width="2.8" stroke-linejoin="round"/>
<path id="Vector_2" d="M40 65.6C53.2548 65.6 64 54.8548 64 41.6C64 28.3452 53.2548 17.6 40 17.6C26.7452 17.6 16 28.3452 16 41.6C16 54.8548 26.7452 65.6 40 65.6Z" fill="var(--fill-0, white)" stroke="var(--stroke-0, #002042)" stroke-width="2.8"/>
<path id="Vector_3" d="M35.8892 21.927C40.258 21.0095 44.8082 21.5799 48.8153 23.5476C52.8224 25.5152 56.056 28.7669 58.0013 32.7849C59.9466 36.8029 60.4917 41.3562 59.5498 45.7199C58.6079 50.0835 56.2331 54.0066 52.8037 56.8644C49.3743 59.7223 45.0873 61.3507 40.6253 61.4902C36.1634 61.6298 31.783 60.2726 28.1816 57.6347C24.5803 54.9967 21.965 51.2297 20.7522 46.9335C19.5394 42.6373 19.7989 38.0588 21.4892 33.927" stroke="var(--stroke-0, #B9E15C)" stroke-width="4.8" stroke-linecap="round"/>
<path id="Vector_4" d="M40 41.6L27 34" stroke="var(--stroke-0, #002042)" stroke-width="2.4" stroke-linecap="round"/>
<path id="Vector_5" d="M40 44C41.3255 44 42.4 42.9255 42.4 41.6C42.4 40.2745 41.3255 39.2 40 39.2C38.6745 39.2 37.6 40.2745 37.6 41.6C37.6 42.9255 38.6745 44 40 44Z" fill="var(--fill-0, #002042)"/>
</g>
</svg>
