<svg preserveAspectRatio="none" width="100%" height="100%" overflow="visible" style="display: block;" viewBox="0 0 48 48" fill="none" xmlns="http://www.w3.org/2000/svg">
<g id="Icon">
<rect x="0.5" y="0.5" width="47" height="47" rx="9.5" fill="var(--fill-0, #F7FCEB)"/>
<rect x="0.5" y="0.5" width="47" height="47" rx="9.5" stroke="var(--stroke-0, #B9E15C)"/>
<path id="Vector" d="M24 9C24.4956 9.00021 24.9865 9.09824 25.4443 9.28809C25.9022 9.47798 26.3186 9.75579 26.6689 10.1064V10.1074L28.0977 11.5361H28.0986C28.5815 12.0182 29.2356 12.2889 29.918 12.2891H31.9375C32.9384 12.2891 33.8986 12.6869 34.6064 13.3945C35.3142 14.1023 35.7119 15.0626 35.7119 16.0635V18.083C35.712 18.7655 35.9826 19.4204 36.4648 19.9033H36.4658L37.8945 21.332C38.6024 22.0398 39 23 39 24.001C39 25.0019 38.6023 25.9622 37.8945 26.6699L36.4658 28.0986C35.9837 28.5808 35.7119 29.2365 35.7119 29.9189V31.9385C35.7118 32.9392 35.3141 33.8988 34.6064 34.6064C33.8986 35.3142 32.9386 35.7119 31.9375 35.7119H29.918C29.2358 35.712 28.5815 35.983 28.0986 36.4648L26.6689 37.8945C25.9611 38.6023 25.001 39 24 39C22.999 39 22.0389 38.6023 21.3311 37.8945L19.9023 36.4658C19.4203 35.9838 18.7643 35.712 18.082 35.7119H16.0625C15.0614 35.7119 14.1014 35.3142 13.3936 34.6064C12.6859 33.8988 12.2882 32.9392 12.2881 31.9385V29.9189C12.2881 29.2365 12.0174 28.5816 11.5352 28.0986H11.5342L10.1055 26.6699C9.39768 25.9622 9.00004 25.0019 9 24.001C9 23 9.39764 22.0398 10.1055 21.332L11.5352 19.9023C12.0169 19.4194 12.2878 18.7652 12.2881 18.083V16.0635L12.293 15.8779C12.3141 15.4454 12.4092 15.0191 12.5752 14.6182C12.7649 14.1601 13.043 13.7441 13.3936 13.3936C13.7441 13.0431 14.1602 12.7649 14.6182 12.5752C15.0763 12.3855 15.5677 12.2879 16.0635 12.2881H18.082C18.7642 12.288 19.4185 12.0171 19.9014 11.5352L21.3311 10.1055C21.995 9.44153 22.8802 9.05121 23.8125 9.00488L24 9ZM28.7549 16.6016C28.4067 16.6073 28.0635 16.6833 27.7451 16.8242C27.4363 16.961 27.1577 17.157 26.9238 17.4004L26.9229 17.3994L20.8252 23.4971L19.4893 22.1611C19.0018 21.6735 18.3409 21.3997 17.6514 21.3994C16.9617 21.3992 16.3003 21.6727 15.8125 22.1602C15.3248 22.6476 15.0501 23.3085 15.0498 23.998C15.0496 24.6877 15.324 25.3491 15.8115 25.8369V25.8379L18.9873 29.0117C19.4748 29.499 20.1359 29.7733 20.8252 29.7734C21.5146 29.7734 22.1765 29.4991 22.6641 29.0117L30.8926 20.7832V20.7373C31.0034 20.5862 31.0997 20.4242 31.1758 20.252C31.3166 19.9334 31.3921 19.5895 31.3975 19.2412C31.4028 18.893 31.3378 18.5473 31.207 18.2246C31.0762 17.9019 30.882 17.6085 30.6357 17.3623C30.3893 17.1161 30.0954 16.9217 29.7725 16.791C29.4495 16.6604 29.1032 16.5959 28.7549 16.6016Z" fill="var(--fill-0, #B9E15C)" stroke="var(--stroke-0, #002042)" stroke-width="2"/>
</g>
</svg>
