<svg preserveAspectRatio="none" width="100%" height="100%" overflow="visible" style="display: block;" viewBox="0 0 52 43.7077" fill="none" xmlns="http://www.w3.org/2000/svg">
<g id="Group 3">
<path id="Vector 2" d="M29.7125 1V38.3887L29.4351 38.6787L26.7213 41.5098L25.9996 42.2627L25.2779 41.5098L22.565 38.6787L22.2867 38.3887V1H29.7125Z" fill="var(--fill-0, #B9E15C)" stroke="var(--stroke-0, #002042)" stroke-width="2"/>
<path id="Vector 1" d="M45 6.00869C48.3137 6.00869 51 8.69498 51 12.0087V25.3827C50.9999 28.6964 48.3137 31.3827 45 31.3827H7C3.68633 31.3827 1.00006 28.6964 1 25.3827V12.0087L1.00781 11.7001C1.16843 8.5298 3.78979 6.00869 7 6.00869H45Z" fill="var(--fill-0, #ECF8CF)" stroke="var(--stroke-0, #002042)" stroke-width="2"/>
<g id="&#195;&#128; vendre">
<path d="M10.4969 21.6174L8.74382 15.8574H10.0377L11.8826 21.6174H10.4969ZM6.24782 21.6174L8.09269 15.8574H9.31148L7.60852 21.6174H6.24782ZM7.52504 20.2984V19.1548H10.597V20.2984H7.52504ZM8.64365 15.4818L7.38313 14.5218H8.79391L9.65374 15.4818H8.64365Z" fill="var(--fill-0, #002042)"/>
<path d="M14.9082 21.6174L13.0634 15.8574H14.4408L16.2105 21.6174H14.9082ZM15.6178 21.6174L17.3375 15.8574H18.6982L16.8533 21.6174H15.6178Z" fill="var(--fill-0, #002042)"/>
<path d="M19.0471 21.6174V15.8574H20.341V21.6174H19.0471ZM19.6148 21.6174V20.407H23.388V21.6174H19.6148ZM19.6148 19.2633V18.1197H22.9957V19.2633H19.6148ZM19.6148 17.0678V15.8574H23.3546V17.0678H19.6148Z" fill="var(--fill-0, #002042)"/>
<path d="M26.8704 21.6174L24.8669 15.8574H26.1859L28.1894 21.6174H26.8704ZM24.0405 21.6174V15.8574H25.2676V21.6174H24.0405ZM27.7887 21.6174V15.8574H29.0158V21.6174H27.7887Z" fill="var(--fill-0, #002042)"/>
<path d="M30.4493 21.6174V20.407H32.0772C32.5558 20.407 32.9175 20.2595 33.1624 19.9645C33.4073 19.664 33.5297 19.255 33.5297 18.7374C33.5297 18.2143 33.4073 17.8052 33.1624 17.5103C32.9175 17.2153 32.5558 17.0678 32.0772 17.0678H30.4493V15.8574H32.1606C32.7339 15.8574 33.2208 15.9771 33.6215 16.2164C34.0222 16.4501 34.3255 16.784 34.5314 17.2181C34.7429 17.6466 34.8486 18.1531 34.8486 18.7374C34.8486 19.3218 34.7429 19.831 34.5314 20.2651C34.3255 20.6936 34.0222 21.0275 33.6215 21.2668C33.2208 21.5005 32.7339 21.6174 32.1606 21.6174H30.4493ZM29.8817 21.6174V15.8574H31.1756V21.6174H29.8817Z" fill="var(--fill-0, #002042)"/>
<path d="M36.0704 19.6724V18.4619H37.7901C38.1073 18.4619 38.3355 18.4035 38.4746 18.2866C38.6193 18.1642 38.6916 17.9889 38.6916 17.7607C38.6916 17.5325 38.6193 17.36 38.4746 17.2431C38.3355 17.1263 38.1073 17.0678 37.7901 17.0678H36.0704V15.8574H37.8652C38.5609 15.8574 39.0923 16.0299 39.4597 16.375C39.827 16.72 40.0106 17.1819 40.0106 17.7607C40.0106 18.3395 39.827 18.8042 39.4597 19.1548C39.0923 19.4998 38.5609 19.6724 37.8652 19.6724H36.0704ZM35.5028 21.6174V15.8574H36.7967V21.6174H35.5028ZM38.7167 21.6174L37.2057 19.1214H38.5414L40.1692 21.6174H38.7167Z" fill="var(--fill-0, #002042)"/>
<path d="M40.6918 21.6174V15.8574H41.9857V21.6174H40.6918ZM41.2595 21.6174V20.407H45.0327V21.6174H41.2595ZM41.2595 19.2633V18.1197H44.6403V19.2633H41.2595ZM41.2595 17.0678V15.8574H44.9993V17.0678H41.2595Z" fill="var(--fill-0, #002042)"/>
</g>
</g>
</svg>
