<svg preserveAspectRatio="none" width="100%" height="100%" overflow="visible" style="display: block;" viewBox="0 0 51.844 51.9088" fill="none" xmlns="http://www.w3.org/2000/svg">
<g id="Group 1">
<path id="Vector" d="M25.9219 1C26.8928 1 27.8241 1.38582 28.5107 2.07227L49.8164 23.3779C50.4832 24.0685 50.8521 24.9932 50.8438 25.9531C50.8354 26.9132 50.4504 27.8318 49.7715 28.5107C49.0926 29.1896 48.1739 29.5747 47.2139 29.583C46.6326 29.588 46.065 29.4532 45.5537 29.1992V44.5859C45.5536 46.2628 44.8869 47.8709 43.7012 49.0566C42.5154 50.2424 40.9074 50.9091 39.2305 50.9092H31.2451C30.274 50.9091 29.3429 50.5226 28.6562 49.8359C27.9696 49.1493 27.584 48.2181 27.584 47.2471V47.2393L27.6367 40.2627H24.2607V47.2471C24.2607 48.2182 23.8742 49.1492 23.1875 49.8359C22.5008 50.5226 21.5698 50.9092 20.5986 50.9092H12.6143C10.9372 50.9092 9.32842 50.2425 8.14258 49.0566C6.95687 47.8709 6.29112 46.2628 6.29102 44.5859V29.1992C5.77954 29.4535 5.21142 29.5881 4.62988 29.583C3.66981 29.5747 2.75116 29.1896 2.07227 28.5107C1.39338 27.8318 1.00834 26.9132 1 25.9531C0.991684 24.9931 1.36135 24.0685 2.02832 23.3779L2.03418 23.3711L23.333 2.07227C24.0196 1.38584 24.951 1.00003 25.9219 1Z" fill="var(--fill-0, #DDF2A8)" stroke="var(--stroke-0, #002042)" stroke-width="2"/>
<g id="Frame">
<g id="Vector_2">
<path d="M21.9246 24.4088L23.9086 26.3928L28.8686 21.4328M33.4186 26.7048L34.3116 25.8118C34.4958 25.6275 34.642 25.4088 34.7417 25.1681C34.8415 24.9274 34.8928 24.6693 34.8928 24.4088C34.8928 24.1482 34.8415 23.8902 34.7417 23.6495C34.642 23.4087 34.4958 23.19 34.3116 23.0058L33.4186 22.1128C33.2344 21.9285 33.0882 21.7098 32.9885 21.4691C32.8888 21.2283 32.8376 20.9703 32.8376 20.7098V19.4488C32.8376 18.9226 32.6285 18.418 32.2565 18.0459C31.8844 17.6738 31.3798 17.4648 30.8536 17.4648H29.5916C29.331 17.4649 29.073 17.4136 28.8323 17.3139C28.5915 17.2142 28.3728 17.0681 28.1886 16.8838L27.2956 15.9908C27.1113 15.8065 26.8926 15.6604 26.6519 15.5606C26.4112 15.4609 26.1531 15.4096 25.8926 15.4096C25.632 15.4096 25.374 15.4609 25.1333 15.5606C24.8925 15.6604 24.6738 15.8065 24.4896 15.9908L23.5966 16.8838C23.4123 17.068 23.1936 17.2141 22.9529 17.3138C22.7121 17.4135 22.4541 17.4648 22.1936 17.4648H20.9326C20.672 17.4647 20.4139 17.5159 20.173 17.6155C19.9322 17.7152 19.7134 17.8613 19.529 18.0455C19.3447 18.2298 19.1985 18.4485 19.0987 18.6893C18.9989 18.9301 18.9476 19.1882 18.9476 19.4488V20.7108C18.9476 21.2378 18.7386 21.7418 18.3666 22.1138L17.4736 23.0068C17.2893 23.191 17.1432 23.4097 17.0434 23.6505C16.9437 23.8912 16.8924 24.1492 16.8924 24.4098C16.8924 24.6703 16.9437 24.9284 17.0434 25.1691C17.1432 25.4098 17.2893 25.6285 17.4736 25.8128L18.3666 26.7058C18.7386 27.0778 18.9476 27.5818 18.9476 28.1088V29.3708C18.9476 29.897 19.1566 30.4016 19.5287 30.7737C19.9008 31.1458 20.4054 31.3548 20.9316 31.3548H22.1936C22.7206 31.3548 23.2246 31.5638 23.5966 31.9358L24.4896 32.8288C24.6738 33.013 24.8925 33.1592 25.1333 33.2589C25.374 33.3587 25.632 33.41 25.8926 33.41C26.1531 33.41 26.4112 33.3587 26.6519 33.2589C26.8926 33.1592 27.1113 33.013 27.2956 32.8288L28.1886 31.9358C28.5608 31.5638 29.0654 31.3548 29.5916 31.3548H30.8536C31.3798 31.3548 31.8844 31.1458 32.2565 30.7737C32.6285 30.4016 32.8376 29.897 32.8376 29.3708V28.1088C32.8376 27.5818 33.0466 27.0768 33.4186 26.7048Z" fill="var(--fill-0, #B9E15C)"/>
<path d="M21.9246 24.4088L23.9086 26.3928L28.8686 21.4328M33.4186 26.7048L34.3116 25.8118C34.4958 25.6275 34.642 25.4088 34.7417 25.1681C34.8415 24.9274 34.8928 24.6693 34.8928 24.4088C34.8928 24.1482 34.8415 23.8902 34.7417 23.6495C34.642 23.4087 34.4958 23.19 34.3116 23.0058L33.4186 22.1128C33.2344 21.9285 33.0882 21.7098 32.9885 21.4691C32.8888 21.2283 32.8376 20.9703 32.8376 20.7098V19.4488C32.8376 18.9226 32.6285 18.418 32.2565 18.0459C31.8844 17.6738 31.3798 17.4648 30.8536 17.4648H29.5916C29.331 17.4649 29.073 17.4136 28.8323 17.3139C28.5915 17.2142 28.3728 17.0681 28.1886 16.8838L27.2956 15.9908C27.1113 15.8065 26.8926 15.6604 26.6519 15.5606C26.4112 15.4609 26.1531 15.4096 25.8926 15.4096C25.632 15.4096 25.374 15.4609 25.1333 15.5606C24.8925 15.6604 24.6738 15.8065 24.4896 15.9908L23.5966 16.8838C23.4123 17.068 23.1936 17.2141 22.9529 17.3138C22.7121 17.4135 22.4541 17.4648 22.1936 17.4648H20.9326C20.672 17.4647 20.4139 17.5159 20.173 17.6155C19.9322 17.7152 19.7134 17.8613 19.529 18.0455C19.3447 18.2298 19.1985 18.4485 19.0987 18.6893C18.9989 18.9301 18.9476 19.1882 18.9476 19.4488V20.7108C18.9476 21.2378 18.7386 21.7418 18.3666 22.1138L17.4736 23.0068C17.2893 23.191 17.1432 23.4097 17.0434 23.6505C16.9437 23.8912 16.8924 24.1492 16.8924 24.4098C16.8924 24.6703 16.9437 24.9284 17.0434 25.1691C17.1432 25.4098 17.2893 25.6285 17.4736 25.8128L18.3666 26.7058C18.7386 27.0778 18.9476 27.5818 18.9476 28.1088V29.3708C18.9476 29.897 19.1566 30.4016 19.5287 30.7737C19.9008 31.1458 20.4054 31.3548 20.9316 31.3548H22.1936C22.7206 31.3548 23.2246 31.5638 23.5966 31.9358L24.4896 32.8288C24.6738 33.013 24.8925 33.1592 25.1333 33.2589C25.374 33.3587 25.632 33.41 25.8926 33.41C26.1531 33.41 26.4112 33.3587 26.6519 33.2589C26.8926 33.1592 27.1113 33.013 27.2956 32.8288L28.1886 31.9358C28.5608 31.5638 29.0654 31.3548 29.5916 31.3548H30.8536C31.3798 31.3548 31.8844 31.1458 32.2565 30.7737C32.6285 30.4016 32.8376 29.897 32.8376 29.3708V28.1088C32.8376 27.5818 33.0466 27.0768 33.4186 26.7048Z" stroke="var(--stroke-0, #002042)" stroke-width="2" stroke-linecap="round" stroke-linejoin="round"/>
</g>
</g>
</g>
</svg>
