<svg preserveAspectRatio="none" width="100%" height="100%" overflow="visible" style="display: block;" viewBox="0 0 48 48" fill="none" xmlns="http://www.w3.org/2000/svg">
<g id="Frame">
<g id="Vector">
<path d="M36 10V8C36 7.46957 35.7893 6.96086 35.4142 6.58579C35.0391 6.21071 34.5304 6 34 6H17.828C17.2976 6.00011 16.789 6.2109 16.414 6.586L8.586 14.414C8.2109 14.789 8.00011 15.2976 8 15.828V40C8 40.5304 8.21071 41.0391 8.58579 41.4142C8.96086 41.7893 9.46957 42 10 42H34C34.5304 42 35.0391 41.7893 35.4142 41.4142C35.7893 41.0391 36 40.5304 36 40V30M18 6V14C18 14.5304 17.7893 15.0391 17.4142 15.4142C17.0391 15.7893 16.5304 16 16 16H8M30.766 17.544L33.511 20.29L36.256 23.036M38.686 15.224C39.4687 16.0074 39.9084 17.0696 39.9084 18.177C39.9084 19.2844 39.4687 20.3466 38.686 21.13L25.386 34.422L18 35.9L19.478 28.516L32.77 15.224C33.1578 14.8344 33.6188 14.5253 34.1264 14.3144C34.634 14.1035 35.1783 13.9949 35.728 13.9949C36.2777 13.9949 36.822 14.1035 37.3296 14.3144C37.8372 14.5253 38.2982 14.8344 38.686 15.224Z" fill="var(--fill-0, #ECF8CF)"/>
<path d="M36 10V8C36 7.46957 35.7893 6.96086 35.4142 6.58579C35.0391 6.21071 34.5304 6 34 6H17.828C17.2976 6.00011 16.789 6.2109 16.414 6.586L8.586 14.414C8.2109 14.789 8.00011 15.2976 8 15.828V40C8 40.5304 8.21071 41.0391 8.58579 41.4142C8.96086 41.7893 9.46957 42 10 42H34C34.5304 42 35.0391 41.7893 35.4142 41.4142C35.7893 41.0391 36 40.5304 36 40V30M18 6V14C18 14.5304 17.7893 15.0391 17.4142 15.4142C17.0391 15.7893 16.5304 16 16 16H8M30.766 17.544L33.511 20.29L36.256 23.036M38.686 15.224C39.4687 16.0074 39.9084 17.0696 39.9084 18.177C39.9084 19.2844 39.4687 20.3466 38.686 21.13L25.386 34.422L18 35.9L19.478 28.516L32.77 15.224C33.1578 14.8344 33.6188 14.5253 34.1264 14.3144C34.634 14.1035 35.1783 13.9949 35.728 13.9949C36.2777 13.9949 36.822 14.1035 37.3296 14.3144C37.8372 14.5253 38.2982 14.8344 38.686 15.224Z" stroke="var(--stroke-0, #002042)" stroke-width="2" stroke-linecap="round" stroke-linejoin="round"/>
</g>
<path id="Vector 3" d="M20 29L19 35L25 34L35.5 23.5L30.5 18.5L20 29Z" fill="var(--fill-0, #B9E15C)"/>
</g>
</svg>
