<svg preserveAspectRatio="none" width="100%" height="100%" overflow="visible" style="display: block;" viewBox="0 0 36 36" fill="none" xmlns="http://www.w3.org/2000/svg">
<g id="Frame">
<rect width="36" height="36" rx="18" fill="var(--fill-0, #B9E15C)"/>
<path id="Vector" d="M22.5 13.5H22.515M13.485 13.5H13.5M31.5 18C31.5 19.7728 31.1508 21.5283 30.4724 23.1662C29.7939 24.8041 28.7995 26.2923 27.5459 27.5459C26.2923 28.7995 24.8041 29.7939 23.1662 30.4724C21.5283 31.1508 19.7728 31.5 18 31.5C16.2271 31.5 14.4717 31.1508 12.8338 30.4724C11.1959 29.7939 9.70764 28.7995 8.45405 27.5459C7.20046 26.2923 6.20606 24.8041 5.52762 23.1662C4.84919 21.5283 4.5 19.7728 4.5 18C4.5 14.4196 5.92231 10.9858 8.45405 8.45407C10.9858 5.92233 14.4196 4.50001 18 4.50001C21.5804 4.50001 25.0142 5.92233 27.5459 8.45407C30.0777 10.9858 31.5 14.4196 31.5 18ZM9.89999 19.5C10.2559 21.3899 11.2609 23.0962 12.7412 24.3238C14.2216 25.5514 16.0843 26.2233 18.0075 26.2233C19.9306 26.2233 21.7934 25.5514 23.2737 24.3238C24.7541 23.0962 25.7591 21.3899 26.115 19.5H9.89999Z" stroke="var(--stroke-0, #002042)" stroke-width="3" stroke-linecap="round" stroke-linejoin="round"/>
</g>
</svg>
