<svg preserveAspectRatio="none" width="100%" height="100%" overflow="visible" style="display: block;" viewBox="0 0 24 24" fill="none" xmlns="http://www.w3.org/2000/svg">
<g id="Icon">
<path id="Vector" fill-rule="evenodd" clip-rule="evenodd" d="M12 2C11.209 2 10.45 2.31398 9.89 2.87396L8.997 3.76691C8.81231 3.95132 8.56199 4.0549 8.30099 4.0549H7.03999C6.64796 4.05477 6.25974 4.13188 5.89753 4.28184C5.53531 4.4318 5.20619 4.65165 4.92898 4.92885C4.65177 5.20604 4.43191 5.53514 4.28194 5.89734C4.13198 6.25954 4.05486 6.64774 4.05499 7.03975V8.30169C4.05488 8.56265 3.95131 8.81292 3.76699 8.99766L2.87399 9.89061C2.31438 10.4502 2 11.2091 2 12.0005C2 12.7919 2.31438 13.5508 2.87399 14.1104L3.76699 15.0034C3.95141 15.188 4.05499 15.4383 4.05499 15.6993V16.9613C4.05499 17.7526 4.36937 18.5116 4.92898 19.0712C5.48859 19.6307 6.24759 19.9451 7.03899 19.9451H8.30099C8.56199 19.9451 8.813 20.0491 8.997 20.2331L9.89 21.1261C10.4496 21.6856 11.2086 22 12 22C12.7914 22 13.5504 21.6856 14.11 21.1261L15.003 20.2331C15.1877 20.0487 15.438 19.9451 15.699 19.9451H16.961C17.7524 19.9451 18.5114 19.6307 19.071 19.0712C19.6306 18.5116 19.945 17.7526 19.945 16.9613V15.6993C19.945 15.4383 20.049 15.1873 20.233 15.0034L21.126 14.1104C21.6856 13.5508 22 12.7919 22 12.0005C22 11.2091 21.6856 10.4502 21.126 9.89061L20.233 8.99766C20.0486 8.81298 19.945 8.56267 19.945 8.30169V7.03975C19.945 6.24838 19.6306 5.48943 19.071 4.92985C18.5114 4.37027 17.7524 4.0559 16.961 4.0559H15.699C15.438 4.0559 15.1877 3.95232 15.003 3.76791L14.11 2.87496C13.833 2.5977 13.5041 2.37773 13.142 2.2276C12.78 2.07747 12.3919 2.00013 12 2ZM15.683 9.72962C15.7807 9.6379 15.8589 9.52748 15.9131 9.40493C15.9673 9.28238 15.9963 9.15019 15.9983 9.01622C16.0004 8.88224 15.9755 8.74922 15.9252 8.62505C15.8749 8.50087 15.8001 8.38808 15.7053 8.29337C15.6105 8.19866 15.4977 8.12396 15.3735 8.07371C15.2492 8.02347 15.1162 7.99869 14.9822 8.00087C14.8482 8.00305 14.7161 8.03212 14.5935 8.08638C14.471 8.14063 14.3607 8.21895 14.269 8.31669L10.016 12.5695L8.739 11.2925C8.55149 11.1049 8.29712 10.9994 8.03185 10.9994C7.76658 10.9993 7.51213 11.1045 7.32449 11.292C7.13685 11.4795 7.03138 11.7339 7.03129 11.9992C7.0312 12.2644 7.13649 12.5188 7.32399 12.7065L9.309 14.6904C9.49652 14.8778 9.75083 14.9831 10.016 14.9831C10.2812 14.9831 10.5355 14.8778 10.723 14.6904L15.683 9.73062V9.72962Z" fill="var(--fill-0, #AEDEE5)"/>
</g>
</svg>
