<?xml version="1.0" encoding="iso-8859-1"?>
<!-- Generator: Adobe Illustrator 13.0.0, SVG Export Plug-In . SVG Version: 6.00 Build 14948)  -->
<!DOCTYPE svg PUBLIC "-//W3C//DTD SVG 1.1//EN" "http://www.w3.org/Graphics/SVG/1.1/DTD/svg11.dtd">
<svg version="1.1" id="Layer_1" xmlns="http://www.w3.org/2000/svg" xmlns:xlink="http://www.w3.org/1999/xlink" x="0px" y="0px"
	 width="550px" height="100px" viewBox="0 0 550 100" style="enable-background:new 0 0 550 100;" xml:space="preserve">
<rect x="12.711" y="12.065" style="fill:#FFFFFF;" width="159.353" height="76.935"/>
<rect x="12.699" y="12.042" style="fill:#FF0000;" width="37.784" height="76.934"/>
<rect x="134.278" y="12.042" style="fill:#FF0000;" width="37.778" height="76.934"/>
<path style="fill:#FF0000;" d="M87.131,28.034l5.407-10.984l5.352,10.583c0.67,1.114,1.212,1.028,2.279,0.487l4.601-2.274
	l-2.993,14.779c-0.625,2.906,1.028,3.749,2.813,1.782l6.563-7.001l1.742,3.966c0.583,1.204,1.473,1.023,2.64,0.806l6.781-1.426
	l-2.278,8.568l-0.046,0.18c-0.264,1.119-0.799,2.052,0.453,2.594l2.407,1.203l-13.976,11.834c-1.426,1.466-0.936,1.916-0.401,3.568
	l1.294,3.968L96.73,68.306c-1.6-0.399-2.719-0.399-2.767,0.895l0.538,14.952h-3.932l0.542-14.911c0-1.473-1.12-1.426-3.756-0.885
	l-12.053,2.312l1.562-3.968c0.535-1.52,0.67-2.55-0.537-3.568L62.04,51.475l2.637-1.606c0.758-0.581,0.806-1.208,0.402-2.504
	l-2.68-8.707l6.875,1.472c1.922,0.446,2.457,0,2.949-1.064l1.921-3.935l6.785,7.683c1.207,1.42,2.904,0.496,2.366-1.561
	L80.038,25.22l5.039,2.9c0.803,0.492,1.653,0.627,2.147-0.31"/>
<g>
	<path d="M266.479,44.857h-3.549l-0.842-3.727c-2.971,3.369-5.678,4.479-9.533,4.479c-9.488,0-15.166-7.544-15.166-16.588
		c0-9.05,5.678-16.587,15.166-16.587c6.918,0,12.729,3.68,13.57,10.82h-5.408c-0.537-4.168-4.172-6.293-8.162-6.293
		c-6.787,0-9.624,5.982-9.624,12.06s2.837,12.063,9.624,12.063c5.676,0.085,8.779-3.326,8.869-8.693h-8.426v-4.209h13.48V44.857"/>
	<path d="M282.313,45.475c7.359,0,11.572-5.052,11.572-12.109c0-7-4.213-12.062-11.572-12.062c-7.365,0-11.578,5.062-11.578,12.062
		C270.734,40.423,274.947,45.475,282.313,45.475 M282.313,41.483c-4.523,0-6.518-4.123-6.518-8.118c0-3.945,1.994-8.068,6.518-8.068
		c4.518,0,6.518,4.123,6.518,8.068C288.83,37.36,286.83,41.483,282.313,41.483z"/>
	<path d="M318.229,44.857h-4.967v-3.194h-0.086c-1.244,2.306-3.99,3.812-6.52,3.812c-5.986,0-8.561-3.018-8.561-8.998V21.926h5.055
		v14.063c0,4.037,1.645,5.495,4.395,5.495c4.209,0,5.631-2.703,5.631-6.253V21.926h5.053V44.857"/>
	<polyline points="321.291,21.926 326.787,21.926 332.6,39.533 332.688,39.533 338.273,21.926 343.504,21.926 335.303,44.857 
		329.629,44.857 321.291,21.926 	"/>
	<path d="M367.363,34.701c0.848-6.879-3.586-13.397-10.814-13.397c-6.834,0-11.09,5.589-11.09,12.108
		c0,7.051,4.033,12.063,11.223,12.063c5.006,0,9.266-2.793,10.375-7.805h-4.791c-0.885,2.527-2.66,3.813-5.584,3.813
		c-4.219,0-6.168-3.19-6.168-6.782H367.363 M350.514,31.374c0.133-3.417,2.527-6.077,6.035-6.077c3.412,0,5.584,2.887,5.764,6.077
		H350.514z"/>
	<path d="M371.221,21.926h4.752v4.439h0.08c0.578-2.439,3.598-5.062,6.699-5.062c1.154,0,1.465,0.095,1.91,0.136v4.881
		c-0.709-0.091-1.467-0.225-2.172-0.225c-3.461,0-6.209,2.795-6.209,7.849v10.913h-5.061V21.926"/>
	<path d="M386.83,21.926h4.791v3.371l0.09,0.09c1.51-2.531,4.123-4.083,7.141-4.083c4.971,0,8.119,2.663,8.119,7.809v15.745h-5.063
		V30.442c-0.088-3.595-1.504-5.146-4.475-5.146c-3.371,0-5.543,2.66-5.543,6.031v13.529h-5.061V21.926"/>
	<path d="M433.088,34.701c0.84-6.879-3.594-13.397-10.824-13.397c-6.826,0-11.088,5.589-11.088,12.108
		c0,7.051,4.041,12.063,11.223,12.063c5.016,0,9.27-2.793,10.379-7.805h-4.785c-0.893,2.527-2.668,3.813-5.594,3.813
		c-4.211,0-6.162-3.19-6.162-6.782H433.088 M416.236,31.374c0.133-3.417,2.529-6.077,6.027-6.077c3.416,0,5.594,2.887,5.768,6.077
		H416.236z"/>
	<path d="M436.949,21.926h4.783v3.195h0.135c1.508-2.266,3.416-3.817,7.051-3.817c2.795,0,5.412,1.2,6.43,3.817
		c1.688-2.352,3.855-3.817,7.189-3.817c4.83,0,7.672,2.13,7.672,7.719v15.835h-5.061V31.463c0-3.641-0.221-6.166-4.166-6.166
		c-3.414,0-4.883,2.264-4.883,6.12v13.44h-5.051V30.133c0-3.15-0.977-4.836-4.033-4.836c-2.621,0-5.014,2.129-5.014,5.945v13.615
		h-5.053V21.926"/>
	<path d="M496.322,34.701c0.846-6.879-3.59-13.397-10.818-13.397c-6.828,0-11.088,5.589-11.088,12.108
		c0,7.051,4.037,12.063,11.221,12.063c5.014,0,9.268-2.793,10.377-7.805h-4.787c-0.891,2.527-2.66,3.813-5.59,3.813
		c-4.213,0-6.162-3.19-6.162-6.782H496.322 M479.475,31.374c0.133-3.417,2.527-6.077,6.029-6.077c3.414,0,5.592,2.887,5.766,6.077
		H479.475z"/>
	<path d="M500.184,21.926h4.787v3.371l0.092,0.09c1.506-2.531,4.123-4.083,7.135-4.083c4.975,0,8.119,2.663,8.119,7.809v15.745
		h-5.055V30.442c-0.088-3.595-1.51-5.146-4.48-5.146c-3.373,0-5.543,2.66-5.543,6.031v13.529h-5.055V21.926"/>
	<path d="M523.332,21.926h3.811v-6.87h5.057v6.87h4.57v3.771h-4.57v12.24c0,2.088,0.178,3.148,2.439,3.148
		c0.715,0,1.42,0,2.131-0.182v3.908c-1.107,0.084-2.172,0.266-3.285,0.266c-5.275,0-6.248-2.043-6.342-5.861v-13.52h-3.811V21.926"
		/>
	<path d="M259.742,57.533h-5.059v11.71h-0.088c-1.553-2.526-4.75-3.59-7.625-3.59c-5.012,0-9.938,3.641-9.938,11.932
		c0,6.87,3.504,12.235,10.73,12.235c2.885,0,5.766-1.105,7.096-3.722h0.088v3.103h4.795V57.533 M242.09,77.981
		c0-4.127,1.685-8.341,6.431-8.341c3.899,0,6.338,3.024,6.338,8.07c0,3.992-1.908,8.117-6.431,8.117
		C244.041,85.828,242.09,81.929,242.09,77.981z"/>
	<path d="M285.369,89.201h-4.965v-3.193h-0.086c-1.242,2.305-3.994,3.813-6.52,3.813c-5.986,0-8.559-3.014-8.559-9V66.275h5.051
		v14.058c0,4.038,1.646,5.495,4.396,5.495c4.211,0,5.631-2.703,5.631-6.254V66.275h5.051V89.201"/>
	<path d="M325.109,67.606c-0.936-3.635-3.281-6.298-7.896-6.298c-6.787,0-9.627,5.986-9.627,12.063
		c0,6.071,2.84,12.059,9.627,12.059c4.924,0,7.625-3.676,8.068-8.292h5.41c-0.445,7.589-5.811,12.817-13.479,12.817
		c-9.494,0-15.172-7.538-15.172-16.584c0-9.049,5.678-16.586,15.172-16.586c7.137,0.045,12.773,3.987,13.438,10.821H325.109"/>
	<path d="M354.242,72.303c0-4.832-4.703-6.649-9.186-6.649c-5.053,0-10.063,1.731-10.416,7.629h5.049
		c0.227-2.486,2.225-3.642,5.059-3.642c2.041,0,4.744,0.493,4.744,3.109c0,2.968-3.232,2.57-6.871,3.234
		c-4.256,0.491-8.824,1.421-8.824,7.141c0,4.484,3.723,6.695,7.848,6.695c2.707,0,5.945-0.84,7.939-2.79
		c0.4,2.083,1.863,2.79,3.9,2.79c0.842,0,2.438-0.306,3.197-0.578v-3.496c-0.535,0.082-0.934,0.082-1.244,0.082
		c-0.934,0-1.195-0.483-1.195-1.724V72.303 M349.184,81.487c0,3.195-3.455,4.341-5.68,4.341c-1.768,0-4.654-0.658-4.654-2.924
		c0-2.661,1.953-3.462,4.125-3.816c2.219-0.397,4.658-0.352,6.209-1.377V81.487z"/>
	<path d="M359.691,66.275h4.791v3.365l0.088,0.096c1.512-2.531,4.127-4.083,7.141-4.083c4.967,0,8.119,2.655,8.119,7.804v15.744
		h-5.059V74.788c-0.09-3.596-1.508-5.147-4.477-5.147c-3.373,0-5.543,2.662-5.543,6.036v13.524h-5.061V66.275"/>
	<path d="M404.348,72.303c0-4.832-4.695-6.649-9.172-6.649c-5.059,0-10.072,1.731-10.426,7.629h5.057
		c0.225-2.486,2.217-3.642,5.055-3.642c2.041,0,4.744,0.493,4.744,3.109c0,2.968-3.24,2.57-6.871,3.234
		c-4.256,0.491-8.828,1.421-8.828,7.141c0,4.484,3.73,6.695,7.852,6.695c2.707,0,5.939-0.84,7.939-2.79
		c0.396,2.083,1.859,2.79,3.898,2.79c0.844,0,2.438-0.306,3.191-0.578v-3.496c-0.527,0.082-0.928,0.082-1.236,0.082
		c-0.934,0-1.203-0.483-1.203-1.724V72.303 M399.295,81.487c0,3.195-3.461,4.341-5.678,4.341c-1.773,0-4.654-0.658-4.654-2.924
		c0-2.661,1.951-3.462,4.123-3.816c2.217-0.397,4.658-0.352,6.209-1.377V81.487z"/>
	<path d="M431.406,57.533h-5.061v11.71h-0.088c-1.551-2.526-4.742-3.59-7.625-3.59c-5.012,0-9.936,3.641-9.936,11.932
		c0,6.87,3.504,12.235,10.729,12.235c2.889,0,5.77-1.105,7.098-3.722h0.092v3.103h4.791V57.533 M413.752,77.981
		c0-4.127,1.686-8.341,6.434-8.341c3.896,0,6.338,3.024,6.338,8.07c0,3.992-1.904,8.117-6.434,8.117
		C415.703,85.828,413.752,81.929,413.752,77.981z"/>
	<path d="M456.1,72.303c0-4.832-4.697-6.649-9.174-6.649c-5.059,0-10.07,1.731-10.426,7.629h5.059
		c0.221-2.486,2.215-3.642,5.061-3.642c2.035,0,4.738,0.493,4.738,3.109c0,2.968-3.24,2.57-6.867,3.234
		c-4.262,0.491-8.83,1.421-8.83,7.141c0,4.484,3.727,6.695,7.848,6.695c2.705,0,5.947-0.84,7.941-2.79
		c0.396,2.083,1.861,2.79,3.898,2.79c0.846,0,2.439-0.306,3.197-0.578v-3.496c-0.531,0.082-0.934,0.082-1.242,0.082
		c-0.934,0-1.203-0.483-1.203-1.724V72.303 M451.049,81.487c0,3.195-3.461,4.341-5.678,4.341c-1.775,0-4.658-0.658-4.658-2.924
		c0-2.661,1.955-3.462,4.125-3.816c2.217-0.397,4.658-0.352,6.211-1.377V81.487z"/>
</g>
</svg>
