<?xml version="1.0" encoding="UTF-8"?>
<svg id="logosandtypes_com" data-name="logosandtypes com" xmlns="http://www.w3.org/2000/svg" viewBox="0 0 150 150">
  <defs>
    <style>
      .cls-1 {
        fill: #ff9b00;
      }

      .cls-2 {
        fill: none;
      }
    </style>
  </defs>
  <path class="cls-2" d="M0,0H150V150H0V0Z"/>
  <path class="cls-1" d="M89.65,106.95c-7.6,5.91-17.06,9.29-27.36,9.29-24.82,0-44.92-20.1-44.92-44.92S37.47,26.23,62.29,26.23s44.92,20.1,44.92,44.92c0,10.3-3.38,19.76-9.29,27.36h0c2.2,1.69,12.5,9.29,13.51,10.64-.34-3.72-1.69-15.7-1.69-15.7l37.66,28.2,.17,.84-27.86-12.33,2.53,21.28-32.59-24.49h0Zm-10.81-8.44c-5.23-3.88-25.5-18.58-25.5-18.58h19.76c1.18,.84,9.96,7.43,14.35,10.81h0c4.05-5.4,6.59-12.16,6.59-19.42,0-17.73-14.19-32.09-31.75-32.09s-31.75,14.35-31.75,32.09,14.19,32.09,31.75,32.09c6.08-.17,11.82-1.86,16.55-4.9h0Z"/>
</svg>